<?xml version="1.0" encoding="utf-8"?>
<svg viewBox="27 19 150 150" xmlns="http://www.w3.org/2000/svg" xmlns:bx="https://boxy-svg.com">
  <ellipse style="fill: rgb(255, 255, 255); stroke: rgb(86, 114, 226); stroke-opacity: 1; stroke-width: 3;" cx="102.357" cy="94.543" rx="72.244" ry="72.244" bx:origin="9.408220869033812e-9 0"/>
  <ellipse style="fill: rgb(255, 255, 255); stroke: rgb(106, 142, 202); stroke-width: 2;" cx="102.391" cy="94.74" rx="68.06" ry="68.06" bx:origin="9.408220869033812e-9 0"/>
  <path d="M 115.695 84.857 L 115.695 76.829 C 115.695 68.923 109.262 62.491 101.357 62.491 C 93.452 62.491 87.019 68.923 87.019 76.829 L 87.019 84.857 L 82.962 85.214 L 82.962 114.972 L 101.357 116.595 L 119.752 114.972 L 119.752 85.214 L 115.695 84.857 Z M 103.521 104.421 L 101.357 104.421 L 99.193 104.421 L 100.433 99.879 C 99.701 99.531 99.193 98.793 99.193 97.929 C 99.193 96.734 100.162 95.765 101.357 95.765 C 102.552 95.765 103.521 96.734 103.521 97.929 C 103.521 98.793 103.013 99.531 102.282 99.879 L 103.521 104.421 Z M 111.366 84.475 L 101.357 83.591 L 91.348 84.475 L 91.348 76.829 C 91.348 71.309 95.838 66.82 101.357 66.82 C 106.876 66.82 111.366 71.309 111.366 76.829 L 111.366 84.475 Z" style="fill: rgb(93, 115, 202);" bx:origin="0 0"/>
</svg>