<?xml version="1.0" encoding="utf-8"?>
<svg viewBox="169 170 160 160" xmlns="http://www.w3.org/2000/svg" xmlns:bx="https://boxy-svg.com">
  <defs>
    <pattern id="pattern-1" x="0" y="0" width="20" height="20" patternUnits="userSpaceOnUse" viewBox="0 0 100 100">
      <path d="M 0 0 L 50 0 L 50 100 L 0 100 Z" style="fill: black;"/>
    </pattern>
  </defs>
  <ellipse style="fill: rgb(216, 216, 216); stroke: none; stroke-opacity: 1; fill-opacity: 0.7;" cx="250" cy="250" rx="75" ry="75" bx:origin="9.408220869033812e-9 0"/>
  <ellipse style="fill: rgb(61, 106, 191); fill-rule: nonzero; fill-opacity: 1; stroke: none; stroke-opacity: 1;" cx="250" cy="250" rx="70" ry="70" bx:origin="0.375 0.375"/>
  <text x="0" y="115" style="fill: rgb(0, 0, 0); font-size: 5px; font-weight: bold; font-family: &quot;Helvetica Neue&quot;, Helvetica, Arial-Unicode, Arial, sans-serif;" transform="matrix(1, 0, 0, 1, 175.000031, 175)"/>
  <g transform="matrix(1, 0, 0, 1, 199.878967, 200.406448)">
    <path d="M18.7,27.5h62.7c2.5,0,4.5-2,4.5-4.5s-2-4.5-4.5-4.5H18.7c-2.5,0-4.5,2-4.5,4.5S16.2,27.5,18.7,27.5z" style="fill: rgb(255, 255, 255);"/>
    <path d="M81.4,45.5H18.7c-2.5,0-4.5,2-4.5,4.5s2,4.5,4.5,4.5h62.7c2.5,0,4.5-2,4.5-4.5S83.9,45.5,81.4,45.5z" style="fill: rgb(255, 255, 255);"/>
    <path d="M81.4,72.5H18.7c-2.5,0-4.5,2-4.5,4.5s2,4.5,4.5,4.5h62.7c2.5,0,4.5-2,4.5-4.5S83.9,72.5,81.4,72.5z" style="fill: rgb(255, 255, 255);"/>
  </g>
</svg>