<?xml version="1.0" encoding="utf-8"?>
<svg viewBox="0 0 150 150" xmlns="http://www.w3.org/2000/svg">
  <path d="M 114.921 32.446 C 110.765 28.289 105.237 26 99.359 26 C 97.664 26 96.005 26.212 94.393 26.582 C 94.029 26.666 93.665 26.751 93.308 26.853 C 92.993 26.943 92.683 27.045 92.372 27.149 C 92.082 27.246 91.795 27.349 91.511 27.457 C 91.206 27.573 90.904 27.689 90.606 27.818 C 90.258 27.968 89.919 28.135 89.582 28.303 C 89.238 28.473 88.899 28.65 88.566 28.838 C 88.169 29.061 87.777 29.293 87.395 29.541 C 87.19 29.674 86.991 29.815 86.791 29.956 C 86.434 30.205 86.084 30.465 85.742 30.735 C 85.574 30.867 85.406 30.997 85.242 31.135 C 84.745 31.552 84.259 31.984 83.797 32.446 C 83.318 32.925 82.873 33.428 82.445 33.942 C 82.341 34.067 82.239 34.193 82.138 34.32 C 81.737 34.824 81.353 35.338 81 35.869 C 80.992 35.881 80.983 35.891 80.976 35.903 C 80.59 36.486 80.241 37.089 79.914 37.702 C 79.886 37.756 79.858 37.811 79.83 37.866 C 77.728 41.896 76.927 46.49 77.568 51.043 L 77.559 51.044 C 77.569 51.112 77.586 51.18 77.596 51.248 C 77.643 51.559 77.696 51.868 77.756 52.178 C 77.763 52.213 77.772 52.248 77.778 52.283 C 77.792 52.355 77.807 52.427 77.823 52.498 C 77.853 52.644 77.88 52.789 77.914 52.935 C 78.002 53.317 78.105 53.697 78.215 54.078 C 78.245 54.182 78.273 54.288 78.304 54.392 C 78.319 54.442 78.33 54.492 78.346 54.541 C 78.363 54.594 78.374 54.647 78.391 54.7 L 78.402 54.696 C 78.543 55.136 78.698 55.571 78.866 56.001 C 79.01 56.371 79.176 56.732 79.341 57.096 C 79.427 57.287 79.506 57.482 79.598 57.67 C 79.535 57.656 79.472 57.649 79.41 57.634 C 79.406 57.637 79.403 57.64 79.399 57.642 C 78.346 57.371 77.378 56.75 76.717 55.782 C 75.875 54.548 75.729 53.055 76.156 51.737 C 75.524 47.757 75.94 43.699 77.296 39.967 C 73.989 39.825 70.61 40.692 67.665 42.7 C 62.529 46.201 60.106 52.177 60.871 57.945 L 59.218 59.072 L 58.473 63.01 L 56.112 62.563 L 55.124 67.786 L 50.945 66.996 L 50.387 69.947 L 46.163 69.148 L 44.806 76.324 L 38.584 75.147 L 38.214 77.099 L 35.762 76.635 L 34.662 82.448 L 29.031 81.383 L 28 86.834 L 28.143 86.835 L 31.553 87.481 L 56.599 70.401 L 58.288 72.88 L 35.721 88.268 L 39.266 88.939 L 68.105 69.274 C 73.305 72.571 80.179 72.675 85.589 68.986 C 86.507 68.36 87.337 67.654 88.08 66.885 C 89.088 67.49 90.134 68.023 91.222 68.455 C 91.225 68.456 91.228 68.458 91.231 68.459 L 91.231 68.458 C 92.057 68.786 92.905 69.052 93.768 69.277 C 92.521 70.594 90.561 71.112 88.757 70.431 C 88.618 70.379 88.498 70.301 88.368 70.238 C 88.012 70.528 87.656 70.819 87.273 71.086 L 87.268 71.091 L 87.104 71.203 C 82.875 74.087 77.879 74.987 73.22 74.119 C 73.84 76.79 75.161 79.26 77.026 81.292 L 76.316 83.173 L 77.966 86.825 L 75.776 87.815 L 77.966 92.658 L 74.091 94.41 L 75.328 97.147 L 71.411 98.918 L 74.419 105.572 L 68.649 108.181 L 69.467 109.992 L 67.194 111.02 L 69.631 116.411 L 64.408 118.772 L 66.694 123.827 L 66.811 123.746 L 69.973 122.316 L 80.675 93.954 L 83.482 95.013 L 73.839 120.57 L 77.127 119.084 L 89.45 86.427 C 95.6 86.14 101.289 82.28 103.6 76.154 C 104.445 73.916 104.734 71.611 104.566 69.375 C 108.451 68.435 112.022 66.47 114.92 63.571 C 123.502 54.989 123.502 41.027 114.921 32.446 Z M 104.06 66.411 C 102.847 61.935 99.712 58.045 95.211 56.034 C 95.198 57.131 95.101 58.223 94.898 59.298 C 94.661 60.552 94.285 61.777 93.794 62.961 C 94.668 63.911 95.124 65.193 95.013 66.499 C 94.094 66.285 93.193 66.013 92.321 65.665 C 91.727 65.428 91.148 65.163 90.587 64.872 C 90.582 64.869 90.577 64.867 90.572 64.865 C 90.365 64.757 90.172 64.626 89.969 64.511 C 93.356 59.294 93.494 52.341 89.771 46.88 C 88.062 44.374 85.756 42.527 83.18 41.364 C 82.229 43.692 81.774 46.212 81.873 48.74 C 82.859 49.034 83.761 49.636 84.386 50.553 C 85.39 52.026 85.411 53.861 84.632 55.333 C 84.549 55.488 84.468 55.644 84.366 55.791 C 84.342 55.825 84.311 55.855 84.287 55.89 C 84.15 56.077 84.005 56.258 83.837 56.426 C 83.739 56.524 83.634 56.607 83.531 56.694 C 83.465 56.75 83.402 56.807 83.333 56.86 C 83.197 56.962 83.057 57.053 82.913 57.138 C 82.861 57.168 82.809 57.195 82.758 57.223 C 82.639 57.009 82.516 56.798 82.405 56.58 C 82.285 56.342 82.179 56.099 82.069 55.855 C 81.929 55.546 81.789 55.239 81.665 54.923 C 81.484 54.459 81.317 53.992 81.175 53.519 C 81.132 53.379 81.101 53.236 81.062 53.094 C 80.941 52.656 80.829 52.217 80.74 51.774 C 80.717 51.658 80.698 51.54 80.677 51.422 C 79.934 47.321 80.535 43.024 82.493 39.248 C 82.517 39.2 82.542 39.152 82.567 39.104 C 82.846 38.576 83.15 38.057 83.483 37.552 C 83.49 37.541 83.498 37.531 83.505 37.52 C 83.807 37.063 84.139 36.62 84.485 36.185 C 84.573 36.076 84.661 35.966 84.751 35.858 C 85.119 35.416 85.503 34.982 85.918 34.566 C 86.318 34.166 86.738 33.794 87.166 33.434 C 87.308 33.315 87.453 33.203 87.598 33.088 C 87.894 32.854 88.196 32.631 88.503 32.416 C 88.677 32.295 88.85 32.172 89.026 32.057 C 89.355 31.843 89.693 31.645 90.033 31.453 C 90.325 31.289 90.621 31.135 90.92 30.986 C 91.21 30.842 91.501 30.699 91.797 30.571 C 92.057 30.459 92.32 30.357 92.585 30.257 C 92.828 30.164 93.073 30.076 93.32 29.994 C 93.591 29.904 93.862 29.814 94.136 29.736 C 94.439 29.651 94.744 29.578 95.051 29.507 C 95.255 29.46 95.456 29.403 95.662 29.362 L 95.661 29.358 C 96.866 29.122 98.102 28.999 99.358 28.999 C 104.435 28.999 109.209 30.977 112.798 34.566 C 120.209 41.978 120.209 54.037 112.798 61.448 C 110.348 63.901 107.336 65.58 104.06 66.411 Z" style="fill: rgb(255, 255, 255);"/>
</svg>