<?xml version="1.0" encoding="utf-8"?>
<svg viewBox="0 0 150 150" xmlns="http://www.w3.org/2000/svg">
  <path d="M 101.5 66.338 L 101.5 51.5 C 101.5 36.888 89.611 25 75 25 C 60.389 25 48.5 36.888 48.5 51.5 L 48.5 66.338 L 41 67 L 41 122 L 75 125 L 109 122 L 109 67 L 101.5 66.338 Z M 79 102.5 L 75 102.5 L 71 102.5 L 73.291 94.104 C 71.94 93.461 71 92.096 71 90.5 C 71 88.29 72.791 86.5 75 86.5 C 77.21 86.5 79 88.29 79 90.5 C 79 92.096 78.061 93.461 76.711 94.103 L 79 102.5 Z M 93.5 65.633 L 75 64 L 56.5 65.633 L 56.5 51.5 C 56.5 41.299 64.799 33 75 33 C 85.201 33 93.5 41.299 93.5 51.5 L 93.5 65.633 Z" style="fill: rgb(255, 255, 255);"/>
  <rect x="119.002" y="14.004" width="11" height="33" style="fill: rgb(255, 255, 255);"/>
  <rect width="33" height="11" y="25.001" x="108" style="fill: rgb(255, 255, 255);"/>
  <rect transform="matrix(NaN, NaN, NaN, NaN, NaN, NaN)" style="fill: rgb(216, 216, 216);"/>
</svg>