<?xml version="1.0" encoding="utf-8"?>
<svg viewBox="27 19 150 150" xmlns="http://www.w3.org/2000/svg" xmlns:bx="https://boxy-svg.com">
  <defs>
    <pattern id="pattern-1" x="0" y="0" width="20" height="20" patternUnits="userSpaceOnUse" viewBox="0 0 100 100">
      <path d="M 0 0 L 50 0 L 50 100 L 0 100 Z" style="fill: black;"/>
    </pattern>
  </defs>
  <ellipse style="fill: rgb(255, 255, 255); stroke-opacity: 1; stroke-width: 3; stroke: rgb(42, 63, 84);" cx="102.357" cy="94.543" rx="72.244" ry="72.244" bx:origin="9.408220869033812e-9 0"/>
  <path d="M 122.207 82.729 L 122.207 71.054 C 122.207 59.557 112.852 50.204 101.357 50.204 C 89.862 50.204 80.507 59.557 80.507 71.054 L 80.507 82.729 L 74.607 83.248 L 74.607 126.522 L 101.357 128.882 L 128.107 126.522 L 128.107 83.248 L 122.207 82.729 Z M 104.504 111.179 L 101.357 111.179 L 98.21 111.179 L 100.013 104.574 C 98.949 104.068 98.21 102.994 98.21 101.738 C 98.21 100 99.619 98.591 101.357 98.591 C 103.095 98.591 104.504 100 104.504 101.738 C 104.504 102.994 103.765 104.068 102.702 104.574 L 104.504 111.179 Z M 115.912 82.173 L 101.357 80.888 L 86.802 82.173 L 86.802 71.054 C 86.802 63.027 93.331 56.499 101.357 56.499 C 109.383 56.499 115.912 63.027 115.912 71.054 L 115.912 82.173 Z" style="fill-opacity: 1; fill: rgb(42, 63, 84);" bx:origin="0 0"/>
</svg>