<?xml version="1.0" encoding="utf-8"?>
<svg viewBox="0 0 150 150" xmlns="http://www.w3.org/2000/svg">
  <g transform="matrix(1, 0, 0, 1, 25.004135, -927.362183)">
    <path d="m 9.000015,975.36218 c -0.57642,0 -1.00415,0.4941 -1,1 l 0,52.00002 c 5e-5,0.5236 0.47642,0.9999 1,1 l 82,0 c 0.52358,-10e-5 0.99995,-0.4764 1,-1 l 0,-52.00002 c -5e-5,-0.5236 -0.47642,-0.9999 -1,-1 l -82,0 z m 2.75,2 76.5,0 -38.25,31.71882 -38.25,-31.71882 z m -1.75,1.125 28.46875,23.62502 -28.46875,23.875 0,-47.50002 z m 80,0 0,47.50002 -28.46875,-23.875 28.46875,-23.62502 z m -49.96875,24.90622 9.34375,7.75 a 1.0001,1.0001 0 0 0 1.25,0 l 9.34375,-7.75 28.5625,23.9688 -77.0625,0 28.5625,-23.9688 z" style="text-indent: 0px; text-transform: none; direction: ltr; baseline-shift: baseline; color: rgb(0, 0, 0); fill: rgb(255, 255, 255);" fill-opacity="1" stroke="none" marker="none" visibility="visible" display="inline" overflow="visible"/>
  </g>
</svg>