<?xml version="1.0" encoding="utf-8"?>
<svg x="0px" y="0px" viewBox="0 0 150 150" xmlns="http://www.w3.org/2000/svg">
  <path d="M 41.4 83.8 L 44.3 121 C 44.4 122.3 45.5 123.3 46.8 123.3 L 55.1 123.3 C 56.4 123.3 57.5 122.3 57.6 121 L 60.5 83.8 L 63.7 80 C 65.2 78.2 66.1 75.9 66.1 73.5 L 66.1 57.7 L 66.1 53.5 C 66.1 52.6 65.7 51.7 65 51.2 C 61.2 48 57 46 56.2 45.5 C 56.1 45.5 56 45.4 56 45.3 L 56 42.7 C 56.4 41.9 56.6 41.1 56.7 40.3 C 56.8 40.4 56.9 40.4 57 40.4 C 57.3 40.4 57.8 40 58.3 38.2 C 58.8 36.4 58.5 35.8 58.1 35.6 C 59.5 28.7 56.3 28.5 56.3 28.5 C 56.3 28.5 55.8 27.5 54.5 26.8 C 53.7 26.4 52.7 26 51.4 26 C 51.2 26 51 26 50.8 26 C 50.3 26 49.8 26.1 49.3 26.3 L 49.3 26.3 C 48.7 26.5 48.2 26.8 47.7 27.1 C 47.1 27.5 46.5 27.9 46 28.5 C 45.2 29.3 44.5 30.3 44.2 31.7 C 43.9 32.8 43.9 34 44.4 35.2 C 44.4 35.2 44.3 35.2 44.3 35.2 C 43.7 35.2 43.2 35.6 43.8 37.8 C 44.3 39.5 44.7 40 45.1 40 C 45.2 41 45.6 42 46.1 43 L 46.1 45.2 C 46.1 45.3 46 45.4 45.9 45.4 C 45.1 45.8 40.9 47.9 37.1 51.1 C 36.4 51.7 36 52.5 36 53.4 L 36 57.7 L 36 73.6 C 36 76 36.8 78.2 38.3 80.1 L 41.4 83.8 Z M 50.9 47.8 L 50.9 47.8 L 50.9 47.8 C 51.5 47.8 54.8 48 51.7 52.3 L 53.2 65.4 L 50.9 68.1 L 48.5 65.4 L 50 52.3 C 47 48 50.3 47.8 50.9 47.8 Z M 82.6 43.5 L 89.8 43.5 L 89.8 48 L 84.8 48 L 84.8 72.5 L 89.8 72.5 L 89.8 77 L 84.8 77 L 84.8 101.5 L 89.8 101.5 L 89.8 106 L 82.6 106 C 81.4 106 80.4 105 80.4 103.8 L 80.4 76.9 L 71.1 76.9 L 71.1 72.4 L 80.4 72.4 L 80.4 45.7 C 80.4 44.5 81.4 43.5 82.6 43.5 Z M 97.4 84.7 L 109.7 84.7 C 111.9 84.7 113.6 83 113.6 80.8 L 113.6 68.6 C 113.6 66.4 111.9 64.7 109.7 64.7 L 97.4 64.7 C 95.2 64.7 93.5 66.4 93.5 68.6 L 93.5 80.9 C 93.5 83 95.2 84.7 97.4 84.7 Z M 99.7 72.7 L 102 75 L 107.5 69.6 L 109.9 72 L 104.4 77.4 L 102 79.8 L 99.6 77.4 L 97.3 75.1 L 99.7 72.7 Z M 113.6 97.5 C 113.6 95.3 111.9 93.6 109.7 93.6 L 97.4 93.6 C 95.2 93.6 93.5 95.3 93.5 97.5 L 93.5 109.8 C 93.5 112 95.2 113.7 97.4 113.7 L 109.7 113.7 C 111.9 113.7 113.6 112 113.6 109.8 L 113.6 97.5 Z M 108.6 106.4 L 106.2 108.8 L 103.5 106.1 L 100.8 108.8 L 98.4 106.4 L 101.1 103.7 L 98.4 101 L 100.8 98.6 L 103.5 101.3 L 106.2 98.6 L 108.6 101 L 105.9 103.7 L 108.6 106.4 Z M 97.4 55.8 L 109.7 55.8 C 111.9 55.8 113.6 54.1 113.6 51.9 L 113.6 39.6 C 113.6 37.4 111.9 35.7 109.7 35.7 L 97.4 35.7 C 95.2 35.7 93.5 37.4 93.5 39.6 L 93.5 51.9 C 93.5 54 95.2 55.8 97.4 55.8 Z M 98.4 43 L 100.8 40.6 L 103.5 43.3 L 106.2 40.6 L 108.6 43 L 105.9 45.7 L 108.6 48.4 L 106.2 50.8 L 103.5 48.1 L 100.8 50.8 L 98.4 48.4 L 101.1 45.7 L 98.4 43 Z"/>
</svg>