<?xml version="1.0" encoding="utf-8"?>
<svg x="0px" y="0px" viewBox="0 0 100 100" xmlns="http://www.w3.org/2000/svg" xmlns:bx="https://boxy-svg.com">
  <g transform="matrix(0.792824, 0, 0, 0.792824, 10.943592, 8.272122)">
    <path d="M99.377,38.487l-11.555-8.084V5.595c0-0.819-0.669-1.485-1.495-1.485H74.919   c-0.822,0-1.485,0.666-1.485,1.485v14.739L50.843,4.526c-0.5-0.361-1.194-0.361-1.693,0L0.632,38.487   c-0.322,0.229-0.548,0.562-0.61,0.965c-0.065,0.382,0.018,0.784,0.243,1.11l6.606,9.424c0.295,0.416,0.756,0.639,1.228,0.639   c0.288,0,0.59-0.077,0.854-0.271l2.897-2.026v46.071c0,0.819,0.674,1.492,1.496,1.492h25.506c0.822,0,1.488-0.673,1.488-1.492   V60.021h19.315v34.378c0,0.819,0.674,1.492,1.496,1.492h25.312c0.822,0,1.481-0.673,1.481-1.492V48.182l3.108,2.172   c0.681,0.479,1.61,0.319,2.075-0.367l6.603-9.424c0.229-0.326,0.316-0.729,0.247-1.11C99.915,39.05,99.689,38.717,99.377,38.487z" style="fill: rgb(255, 255, 255);"/>
  </g>
  <path d="M 69.703 81.578 L 61.303 41.104 C 64.261 37.402 69.273 34.5 69.273 34.5 L 70.629 25.091 L 56.814 27.337 L 55.887 22.251 L 39.138 54.268 L 34.396 78.915 C 33.023 78.264 30.48 76.676 27.934 73.102 C 27.934 73.102 26.924 78.928 29.609 82.237 C 30.684 83.565 32.8 84.588 32.8 84.588 L 40.217 84.588 L 52.023 84.588 L 67.55 84.588 C 67.55 81.02 58.295 80.319 58.295 80.319 C 58.295 79.755 58.257 78.879 58.189 78.879 L 58.085 78.879 C 58.085 78.879 58.106 77.83 57.694 76.54 C 57.682 76.501 57.671 76.372 57.656 76.335 C 57.635 76.269 57.609 76.154 57.585 76.086 C 57.339 75.419 57.039 74.774 56.694 74.198 C 55.275 71.843 52.411 69.055 46.623 67.306 L 47.525 65.684 C 47.525 65.684 54.153 67.106 57.684 71.9 L 59.681 65.139 L 64.626 80.148 C 64.634 80.148 64.64 80.148 64.646 80.148 C 64.711 80.148 69.457 81.467 69.457 84.588 L 72.444 84.588 C 72.444 84.588 71.875 82.381 69.703 81.578 Z" style="fill: rgb(0, 140, 186);" bx:origin="0.5 0.5"/>
</svg>