<?xml version="1.0" encoding="utf-8"?>
<svg x="0px" y="0px" viewBox="0 0 100 100" xmlns="http://www.w3.org/2000/svg" xmlns:bx="https://boxy-svg.com">
  <g transform="matrix(0.792824, 0, 0, 0.792824, 10.943592, 8.272122)">
    <path d="M99.377,38.487l-11.555-8.084V5.595c0-0.819-0.669-1.485-1.495-1.485H74.919   c-0.822,0-1.485,0.666-1.485,1.485v14.739L50.843,4.526c-0.5-0.361-1.194-0.361-1.693,0L0.632,38.487   c-0.322,0.229-0.548,0.562-0.61,0.965c-0.065,0.382,0.018,0.784,0.243,1.11l6.606,9.424c0.295,0.416,0.756,0.639,1.228,0.639   c0.288,0,0.59-0.077,0.854-0.271l2.897-2.026v46.071c0,0.819,0.674,1.492,1.496,1.492h25.506c0.822,0,1.488-0.673,1.488-1.492   V60.021h19.315v34.378c0,0.819,0.674,1.492,1.496,1.492h25.312c0.822,0,1.481-0.673,1.481-1.492V48.182l3.108,2.172   c0.681,0.479,1.61,0.319,2.075-0.367l6.603-9.424c0.229-0.326,0.316-0.729,0.247-1.11C99.915,39.05,99.689,38.717,99.377,38.487z" style="fill: rgb(190, 190, 190);"/>
  </g>
  <path d="M 73.037 82.091 L 66.069 48.517 C 68.523 45.446 72.68 43.039 72.68 43.039 L 73.805 35.234 L 62.345 37.097 L 61.576 32.878 L 47.683 59.437 L 43.749 79.882 C 42.61 79.342 40.501 78.025 38.389 75.06 C 38.389 75.06 37.551 79.893 39.778 82.638 C 40.67 83.739 42.425 84.588 42.425 84.588 L 48.578 84.588 L 58.371 84.588 L 71.251 84.588 C 71.251 81.628 63.574 81.047 63.574 81.047 C 63.574 80.579 63.542 79.852 63.486 79.852 L 63.4 79.852 C 63.4 79.852 63.417 78.982 63.075 77.912 C 63.065 77.88 63.056 77.773 63.044 77.742 C 63.026 77.687 63.005 77.592 62.985 77.535 C 62.781 76.982 62.532 76.447 62.246 75.969 C 61.069 74.016 58.693 71.703 53.892 70.252 L 54.64 68.907 C 54.64 68.907 60.138 70.086 63.067 74.063 L 64.724 68.455 L 68.826 80.905 C 68.832 80.905 68.837 80.905 68.842 80.905 C 68.896 80.905 72.833 81.999 72.833 84.588 L 75.311 84.588 C 75.311 84.588 74.839 82.757 73.037 82.091 Z" style="fill: rgb(0, 140, 186);" bx:origin="0.5 0.5"/>
</svg>