<?xml version="1.0" encoding="utf-8"?>
<svg x="0px" y="0px" viewBox="0 0 100 100" xmlns="http://www.w3.org/2000/svg" xmlns:bx="https://boxy-svg.com">
  <path d="M 72.723 33.64 C 76.616 33.814 80.908 34.434 82.983 38.207 C 83.76 39.085 87.784 45.424 87.447 46.324 C 88.986 49.12 75.157 46.308 73.884 46.101 C 77.284 49.902 77.026 57.1 77.65 61.837 C 78.648 69.429 77.626 69.897 85.005 72.005 C 92.216 74.065 82.006 77.023 79.667 77.734 C 76.649 78.653 72.055 87.181 71.115 87.181 C 69.445 87.181 73.001 81.176 71.333 81.176 C 67.983 81.176 68.044 88.386 65.889 88.386 C 64.712 88.386 66.193 84.964 66.193 84.516 C 66.194 82.154 60.788 89.272 61.068 89.272 C 58.092 89.272 64.376 82.224 64.997 81.868 C 67.573 80.396 70.149 78.924 72.725 77.454 C 70.55 77.319 68.376 77.186 66.201 77.051 C 67.508 75.234 69.28 74.295 71.519 74.238 C 68.95 65.427 67.562 57.792 57.702 54.81 C 50.402 52.601 41.696 51.275 35.061 47.389 C 29.981 44.413 31.323 42.869 31.323 38.061 C 31.323 31.597 26.21 31.118 22.881 27.209 C 20.737 24.69 19.452 20.646 17.915 17.705 C 16.209 14.443 12.887 16.012 13.636 10.728 C 21.493 13.314 23.616 22.466 31.844 25.287 C 36.534 26.894 40.619 29.1 43.07 33.662 C 45.751 38.646 62.233 38.648 68.663 41.294 C 68.81 40.753 68.959 40.212 69.106 39.671 C 73.527 40.876 77.948 42.082 82.371 43.286 C 80.203 37.047 74.346 39.638 72.723 33.64" transform="matrix(-1, 0, 0, -1, 105.103044, 100.000027)" style="fill: rgb(255, 255, 255);" bx:origin="0.5 0.5"/>
</svg>