<?xml version="1.0" encoding="utf-8"?>
<svg x="0px" y="0px" viewBox="0 0 100 100" xmlns="http://www.w3.org/2000/svg" xmlns:bx="https://boxy-svg.com">
  <path d="M 68.888 81.234 L 59.528 36.137 C 62.824 32.012 68.408 28.779 68.408 28.779 L 70.539 21.393 L 54.526 20.797 L 53.493 15.13 L 37.93 52.354 L 29.547 78.267 C 28.018 77.541 25.184 75.772 22.347 71.79 C 22.347 71.79 21.222 78.281 24.214 81.969 C 25.411 83.447 27.769 84.588 27.769 84.588 L 36.034 84.588 L 49.188 84.588 L 66.489 84.588 C 66.489 80.612 56.176 79.831 56.176 79.831 C 56.176 79.203 56.133 78.227 56.058 78.227 L 55.943 78.227 C 55.943 78.227 55.966 77.058 55.507 75.621 C 55.493 75.577 55.481 75.434 55.465 75.392 C 55.441 75.318 55.413 75.191 55.385 75.114 C 55.111 74.371 54.777 73.653 54.393 73.011 C 52.812 70.387 49.621 67.281 43.171 65.332 L 44.176 63.525 C 44.176 63.525 51.562 65.108 55.496 70.45 L 57.721 62.918 L 63.231 79.641 C 63.239 79.641 63.246 79.641 63.253 79.641 C 63.325 79.641 68.614 81.111 68.614 84.588 L 71.942 84.588 C 71.942 84.588 71.308 82.129 68.888 81.234 Z" style="fill: rgb(190, 190, 190);" bx:origin="0.5 0.5"/>
</svg>