<?xml version="1.0" encoding="utf-8"?>
<svg x="0px" y="0px" viewBox="0 0 150 150" xmlns="http://www.w3.org/2000/svg">
  <path d="M 65.5 83.741 L 68.4 120.941 C 68.5 122.241 69.6 123.241 70.9 123.241 L 79.2 123.241 C 80.5 123.241 81.6 122.241 81.7 120.941 L 84.6 83.741 L 87.8 79.941 C 89.3 78.141 90.2 75.841 90.2 73.441 L 90.2 57.641 L 90.2 53.441 C 90.2 52.541 89.8 51.641 89.1 51.141 C 85.3 47.941 81.1 45.841 80.3 45.441 C 80.2 45.441 80.2 45.341 80.2 45.241 C 80.2 44.841 80.2 43.841 80.2 42.741 C 80.6 41.941 80.8 41.141 80.9 40.341 C 81.2 40.541 81.8 40.441 82.4 38.241 C 82.9 36.441 82.6 35.841 82.2 35.641 L 82.1 35.641 C 82.2 35.341 82.2 35.241 82.2 35.241 C 83.9 28.241 80 28.541 80 28.541 C 79.7 27.141 77.7 25.741 75.9 26.041 C 73.8 26.441 70 26.041 70 26.041 C 69.9 26.841 70.6 27.441 70.6 27.441 C 66.7 29.841 68.3 35.341 68.3 35.341 C 67.7 35.241 67 35.641 67.7 37.941 C 68.2 39.641 68.6 40.141 69 40.141 C 69.1 41.141 69.5 42.141 70 43.141 L 70 45.241 C 70 45.341 69.9 45.441 69.9 45.441 C 69.1 45.841 64.9 47.941 61.1 51.141 C 60.4 51.741 60 52.541 60 53.441 L 60 57.641 L 60 73.541 C 60 75.941 60.8 78.141 62.3 80.041 L 65.5 83.741 Z M 75 47.741 L 75 47.741 L 75 47.741 C 75.6 47.741 78.9 47.941 75.8 52.241 L 77.3 65.241 L 75 67.941 L 72.6 65.341 L 74.1 52.341 C 71.1 47.941 74.4 47.741 75 47.741 Z"/>
</svg>