<?xml version="1.0" encoding="utf-8"?>
<svg x="0px" y="0px" viewBox="0 0 150 150" xmlns="http://www.w3.org/2000/svg">
  <g>
    <path d="M 91.5 83.8 L 89.8 81.8 C 91.7 79.4 92.7 76.5 92.7 73.5 L 92.7 57.7 L 92.7 53.5 C 92.7 51.6 91.9 49.9 90.4 48.7 C 90.4 48.7 90.4 48.7 90.3 48.6 C 92.9 46.9 95.1 45.7 95.7 45.4 C 95.8 45.4 95.9 45.3 95.9 45.2 L 95.9 43 C 95.3 42 95 40.9 94.9 40 C 94.6 40 94.1 39.5 93.6 37.8 C 93 35.6 93.6 35.2 94.1 35.2 C 94.1 35.2 94.2 35.2 94.2 35.2 C 93.8 34 93.8 32.8 94 31.7 C 94.3 30.4 95 29.4 95.8 28.5 C 96.3 28 96.9 27.5 97.5 27.1 C 98 26.8 98.5 26.5 99.1 26.3 L 99.1 26.3 C 99.6 26.1 100 26 100.6 26 C 100.8 26 101 26 101.2 26 C 102.5 26 103.5 26.4 104.3 26.8 C 105.6 27.5 106.1 28.5 106.1 28.5 C 106.1 28.5 109.4 28.7 107.9 35.6 C 108.3 35.8 108.7 36.4 108.1 38.2 C 107.6 39.9 107.1 40.4 106.8 40.4 C 106.7 40.4 106.6 40.4 106.5 40.3 C 106.4 41.1 106.1 41.9 105.8 42.7 L 105.8 45.3 C 105.8 45.4 105.9 45.5 106 45.5 C 106.8 45.9 111 48 114.8 51.2 C 115.5 51.8 115.9 52.6 115.9 53.5 L 115.9 57.7 L 115.9 73.5 C 115.9 75.9 115.1 78.2 113.5 80 L 110.5 83.8 L 107.6 121 C 107.5 122.3 106.4 123.3 105.1 123.3 L 96.8 123.3 C 95.5 123.3 94.4 122.3 94.3 121 L 91.5 83.8 Z M 38.5 83.8 L 41.4 121 C 41.5 122.3 42.6 123.3 43.9 123.3 L 52.2 123.3 C 53.5 123.3 54.6 122.3 54.7 121 L 57.5 83.8 L 59.1 81.9 C 57.2 79.6 56.2 76.6 56.2 73.6 L 56.2 57.7 L 56.2 53.5 C 56.2 51.6 57 49.9 58.5 48.7 C 58.5 48.7 58.5 48.7 58.6 48.6 C 56 46.9 53.8 45.7 53.2 45.4 C 53.1 45.4 53 45.3 53 45.2 L 53 42.7 C 53.4 41.9 53.6 41.1 53.7 40.3 C 53.8 40.4 53.9 40.4 54 40.4 C 54.3 40.4 54.8 40 55.3 38.2 C 55.8 36.4 55.5 35.8 55.1 35.6 C 56.5 28.7 53.3 28.5 53.3 28.5 C 53.3 28.5 52.8 27.5 51.5 26.8 C 50.7 26.4 49.7 26 48.4 26 C 48.2 26 48 26 47.8 26 C 47.3 26 46.8 26.1 46.3 26.3 L 46.3 26.3 C 45.7 26.5 45.2 26.8 44.7 27.1 C 44.1 27.5 43.5 27.9 43 28.5 C 42.2 29.4 41.5 30.4 41.2 31.7 C 40.9 32.8 40.9 34 41.4 35.2 C 41.4 35.2 41.3 35.2 41.3 35.2 C 40.7 35.2 40.2 35.6 40.8 37.8 C 41.3 39.5 41.7 40 42.1 40 C 42.2 41 42.6 42 43.1 43 L 43.1 45.2 C 43.1 45.3 43 45.4 42.9 45.4 C 42.1 45.8 37.9 47.9 34.1 51.1 C 33.4 51.7 33 52.5 33 53.4 L 33 57.7 L 33 73.6 C 33 76 33.8 78.2 35.3 80.1 L 38.5 83.8 Z M 69.3 45.5 C 68.5 45.9 64.3 48 60.5 51.2 C 59.8 51.8 59.4 52.6 59.4 53.5 L 59.4 57.7 L 59.4 73.6 C 59.4 76 60.2 78.2 61.7 80.1 L 64.9 83.9 L 67.8 121.1 C 67.9 122.4 69 123.4 70.3 123.4 L 78.6 123.4 C 79.9 123.4 81 122.4 81.1 121.1 L 84 83.9 L 87.2 80.1 C 88.7 78.3 89.6 76 89.6 73.6 L 89.6 57.7 L 89.6 53.5 C 89.6 52.6 89.2 51.7 88.5 51.2 C 84.7 48 80.5 46 79.7 45.5 C 79.6 45.5 79.5 45.4 79.5 45.3 L 79.5 42.7 C 79.9 41.9 80.1 41.1 80.2 40.3 C 80.3 40.4 80.4 40.4 80.5 40.4 C 80.8 40.4 81.3 40 81.8 38.2 C 82.3 36.4 82 35.8 81.6 35.6 C 83 28.7 79.8 28.5 79.8 28.5 C 79.8 28.5 79.3 27.5 78 26.8 C 77.2 26.4 76.2 26 74.9 26 C 74.7 26 74.5 26 74.3 26 C 73.8 26 73.3 26.1 72.8 26.3 L 72.8 26.3 C 72.2 26.5 71.7 26.8 71.2 27.1 C 70.5 27.6 70 28 69.5 28.6 C 68.7 29.4 68 30.4 67.7 31.8 C 67.4 32.9 67.4 34.1 67.9 35.3 C 67.9 35.3 67.8 35.3 67.8 35.3 C 67.2 35.3 66.7 35.7 67.3 37.9 C 67.8 39.6 68.2 40.1 68.6 40.1 C 68.7 41.1 69.1 42.1 69.6 43.1 L 69.6 45.3 C 69.5 45.4 69.4 45.5 69.3 45.5 Z"/>
  </g>
</svg>